<svg width="24" height="24" viewBox="0 0 24 24" fill="none" xmlns="http://www.w3.org/2000/svg">
<path fill-rule="evenodd" clip-rule="evenodd" d="M1.29289 12.7518C0.902369 12.3613 0.902369 11.7281 1.29289 11.3376L3.94204 8.68842V4.94195C3.94204 4.38966 4.38976 3.94195 4.94204 3.94195H8.68851L11.3376 1.29289C11.7281 0.902369 12.3613 0.902369 12.7518 1.29289L15.4008 3.94195H19.1474C19.6996 3.94195 20.1474 4.38966 20.1474 4.94195V8.68847L22.7964 11.3376C23.187 11.7281 23.187 12.3613 22.7964 12.7518L20.1474 15.4009V19.1473C20.1474 19.6995 19.6996 20.1473 19.1474 20.1473H15.401L12.7518 22.7964C12.3613 23.187 11.7281 23.187 11.3376 22.7964L8.68837 20.1473H4.94204C4.38976 20.1473 3.94204 19.6995 3.94204 19.1473V15.4009L1.29289 12.7518ZM5.75 12.799C5.33579 12.0816 5.5816 11.1642 6.29904 10.75L10.1962 8.5L14.0933 6.25C14.8107 5.83579 15.7281 6.0816 16.1423 6.79904C16.5565 7.51648 16.3107 8.43386 15.5933 8.84808L12.9952 10.3481L15.7452 15.1112C16.1594 15.8287 15.9136 16.746 15.1962 17.1603C14.4787 17.5745 13.5613 17.3287 13.1471 16.6112L10.3971 11.8481L7.79904 13.3481C7.0816 13.7623 6.16421 13.5165 5.75 12.799Z" fill="#007FFF"/>
</svg>
